<?xml version="1.0" encoding="utf-8"?>
<!-- Svg Vector Icons : http://www.onlinewebfonts.com/icon -->
<!DOCTYPE svg PUBLIC "-//W3C//DTD SVG 1.1//EN" "http://www.w3.org/Graphics/SVG/1.1/DTD/svg11.dtd">
<svg version="1.1" xmlns="http://www.w3.org/2000/svg" xmlns:xlink="http://www.w3.org/1999/xlink" x="0px" y="0px" viewBox="0 0 1000 1000" enable-background="new 0 0 1000 1000" xml:space="preserve">
<metadata> Svg Vector Icons : http://www.onlinewebfonts.com/icon </metadata>
<g><g transform="translate(0.000000,512.000000) scale(0.100000,-0.100000)"><path d="M215,5005.5c-21.1-9.6-55.6-36.4-76.6-59.4c-38.3-42.2-38.3-69-38.3-1297.1V2394l63.2-55.6l63.2-55.6l1253,3.8l1253,5.7l44.1,44.1l44.1,44.1l5.7,1253l3.8,1253l-55.6,63.2l-55.6,63.2l-1233.9,3.8C807,5018.9,236,5013.1,215,5005.5z M2443.2,3647.1l3.8-981l-981,3.8l-982.9,5.7l-5.7,958c-1.9,526.9,0,969.5,5.7,982.9c5.7,19.2,212.7,23,981,19.2l973.3-5.7L2443.2,3647.1z"/><path d="M1717,3940.2l-369.8-411.9l-49.8,44.1c-93.9,86.2-450.2,388.9-473.2,402.3c-13.4,7.7-70.9-44.1-147.5-132.2l-124.5-145.6l410-352.5c226.1-193.5,413.8-352.5,419.6-352.5c5.8,0,235.7,251,511.6,557.5l502,555.6l-132.2,122.6c-72.8,67.1-141.8,122.6-155.2,124.5C2096.4,4352.1,1920.1,4166.3,1717,3940.2z"/><path d="M4018.1,3643.2v-191.6h2941h2941v191.6v191.6H6959h-2941V3643.2z"/><path d="M232.2,1476.3c-32.6-9.6-74.7-34.5-95.8-57.5c-34.5-38.3-36.4-84.3-36.4-1300.9c0-1214.7,1.9-1262.6,36.4-1300.9c21.1-23,67.1-49.8,105.4-61.3c46-13.4,473.2-17.3,1272.2-13.4l1205.1,5.7l55.6,63.2l55.6,61.3V114.1c0,1115.1-3.8,1245.4-30.7,1285.6c-69,97.7-70.9,97.7-1333.5,95.8C820.4,1495.5,264.8,1485.9,232.2,1476.3z M2447,117.9v-977.1h-986.7H473.6v977.1V1095h986.7H2447V117.9z"/><path d="M1730.5,424.5c-199.3-222.3-367.9-408.1-375.5-411.9c-7.7-3.8-134.1,93.9-279.7,220.3L808.9,462.8L761,407.2c-26.8-28.7-84.3-95.8-128.4-149.4l-80.5-93.9l410-350.6c226.1-191.6,415.8-348.7,421.5-348.7c13.4,0,1005.9,1099.7,1003.9,1113.2S2129,815.3,2107.9,821.1C2098.3,824.9,1929.7,644.8,1730.5,424.5z"/><path d="M4018.1,117.9V-73.7h2941h2941v191.6v191.6H6959h-2941V117.9z"/><path d="M163.2-2102.7l-63.2-55.6v-1256.9v-1256.8l53.6-51.7l51.7-53.6h1256.9h1256.9l55.6,63.2l55.6,63.2l-3.8,1253l-5.7,1253l-44.1,44.1l-44.1,44.1l-1253,5.7l-1253,3.8L163.2-2102.7z M2443.2-3411.3l-5.7-982.9h-977.1H483.2l-5.7,958c-1.9,526.9,0,969.5,5.7,982.9c5.7,17.3,222.2,23,986.7,23H2447L2443.2-3411.3z"/><path d="M4018.1-3407.4V-3599h2941h2941v191.6v191.6H6959h-2941V-3407.4z"/></g></g>
</svg>