<svg width="30" height="30" viewBox="0 0 30 30" fill="none" xmlns="http://www.w3.org/2000/svg">
<path d="M6.66347 13.0202C7.42143 13.1781 8.17913 12.6728 8.30549 11.9151C8.46334 11.1571 7.95802 10.3994 7.20032 10.2731C6.44235 10.1152 5.68465 10.6205 5.55829 11.3782C5.40019 12.1359 5.9055 12.8939 6.66347 13.0202V13.0202Z" fill="white"/>
<path d="M13.453 11.2839C14.211 11.4418 14.9687 10.9365 15.095 10.1787C15.2529 9.42078 14.7476 8.66309 13.9899 8.53672C13.2319 8.37888 12.4742 8.88419 12.3478 9.6419C12.1897 10.3996 12.6951 11.1576 13.453 11.2839Z" fill="white"/>
<path d="M29.4633 15.4836L26.2422 16.3046C27.7579 14.8835 28.3896 12.6098 27.5686 10.4624C26.7158 8.12572 24.2843 6.70461 21.821 7.05202C18.6 7.49404 16.5475 10.652 17.337 13.7152C17.8423 15.7047 19.358 17.1256 21.1896 17.5994L13.8 19.4941L14.2738 16.9047C14.3368 16.5572 14.179 16.21 13.8633 16.0522L12.5685 15.326L13.4843 13.2416L15.2527 13.3047C15.3475 13.3047 15.4105 13.3047 15.4738 13.2731L16.4527 12.9575C16.4212 12.4837 16.4212 12.0101 16.4842 11.5363L15.1264 11.9784L13.6419 11.9151L12.3789 11.3782C12.1263 11.2834 11.8736 11.2834 11.621 11.3782C11.3998 11.5046 11.2105 11.6939 11.1472 11.9466L10.1683 15.1045C10.0419 15.4835 10.1998 15.894 10.5473 16.0834L12.5998 17.1886L12.1578 19.431C12.1262 19.5889 12.1578 19.7467 12.2208 19.9048L10.2313 20.4101L11.5576 17.4103L10.1998 16.6523C10.1683 16.6523 10.1683 16.6208 10.1368 16.6208L8.55777 20.1578C8.46296 20.3789 8.46296 20.5998 8.55777 20.8209L7.0103 21.2314L7.4841 18.6421C7.54714 18.2946 7.38929 17.9474 7.0736 17.7896L5.77879 17.0633L6.69459 14.979L8.46297 15.042C8.55778 15.042 8.62082 15.042 8.68411 15.0105L9.50509 14.7263L10.0104 13.1473L8.39992 13.6842L6.85245 13.6527L5.58945 13.1158C5.33678 13.021 5.08413 13.021 4.83148 13.1158C4.61034 13.2421 4.42098 13.4315 4.35768 13.6842L3.34706 16.8421C3.22073 17.2211 3.37858 17.6316 3.72605 17.821L5.77856 18.9262L5.36806 21.1683C5.33654 21.3262 5.36806 21.484 5.43109 21.6421L3.44159 22.1474L4.76795 19.1476L3.41012 18.3896C3.3786 18.3896 3.3786 18.3581 3.34709 18.3581L1.76808 21.8951C1.67326 22.1162 1.67326 22.3371 1.76808 22.5582L0.315696 22.9677C0.126334 23.0307 0 23.1888 0 23.3782C0 23.5994 0.189361 23.7887 0.410503 23.7887H29.5895C29.8106 23.7887 30 23.5994 30 23.3782V15.8939C30 15.6097 29.7473 15.4204 29.4632 15.4834L29.4633 15.4836Z" fill="white"/>
</svg>
