<svg width="30" height="30" viewBox="0 0 30 30" fill="none" xmlns="http://www.w3.org/2000/svg">
<g clip-path="url(#clip0_45_48)">
<path d="M25.921 28.186C25.921 28.2156 25.921 28.2449 25.9177 28.2778C25.9307 28.1893 25.9406 28.1045 25.9536 28.016C25.9437 28.0912 25.9274 28.16 25.9014 28.2288C25.934 28.1503 25.9669 28.0719 25.9995 27.9934C25.9929 28.0064 25.9307 28.1504 25.921 28.147C25.9144 28.1437 26.1172 27.9312 25.9669 28.0815C25.9506 28.0978 25.9373 28.1111 25.921 28.1241C25.8621 28.1733 25.9014 28.1437 26.0354 28.0357C25.9832 28.0553 25.934 28.0912 25.8818 28.1142C25.9603 28.0815 26.0387 28.0487 26.1172 28.016C26.0484 28.0423 25.9766 28.0586 25.9044 28.0683C25.9929 28.0553 26.0777 28.0453 26.1661 28.0324C25.947 28.0487 25.7212 28.0357 25.4987 28.0357H23.8889H21.4937H18.5654H15.3555H12.0967H9.07658H6.52773H4.70208C4.41743 28.0357 4.13277 28.039 3.85147 28.0357C3.80891 28.0357 3.76967 28.0357 3.73043 28.0324C3.81886 28.0453 3.9037 28.0553 3.99214 28.0683C3.91697 28.0583 3.84815 28.042 3.77934 28.016C3.85783 28.0487 3.93632 28.0815 4.0148 28.1142C4.00181 28.1075 3.85782 28.0453 3.86114 28.0357C3.86446 28.029 4.07698 28.2319 3.92664 28.0815C3.91033 28.0652 3.89707 28.052 3.88408 28.0357C3.83489 27.9768 3.86446 28.016 3.97251 28.1501C3.95289 28.0978 3.91697 28.0487 3.89403 27.9964C3.92664 28.0749 3.95952 28.1534 3.99213 28.2319C3.96588 28.1631 3.94957 28.0912 3.9399 28.0191C3.95289 28.1075 3.96284 28.1924 3.97583 28.2808C3.95621 28.0224 3.97251 27.7607 3.97251 27.502V25.5879V22.7577V19.2861V15.4809V11.6364V8.05367V5.04354V2.87412C3.97251 2.53724 3.96919 2.19676 3.97251 1.85987C3.97251 1.81731 3.97251 1.77475 3.97583 1.72887C3.96284 1.81731 3.95289 1.90215 3.9399 1.99059C3.94985 1.91542 3.96615 1.8466 3.99213 1.77779C3.95952 1.85628 3.92664 1.93477 3.89403 2.01325C3.90066 2.00026 3.96284 1.85627 3.97251 1.85959C3.97915 1.86291 3.7763 2.07543 3.92664 1.92509C3.94294 1.90878 3.95621 1.89552 3.97251 1.88253C4.03138 1.83334 3.99213 1.86291 3.8581 1.97096C3.91033 1.95134 3.95952 1.91541 4.01176 1.89247C3.93327 1.92509 3.85478 1.95797 3.7763 1.99058C3.84511 1.96433 3.91697 1.94802 3.9891 1.93835C3.90066 1.95134 3.81582 1.96129 3.72739 1.97428C3.91724 1.95797 4.10683 1.97096 4.29669 1.97096H5.6448H10.1111H15.5327H20.2281C20.9905 1.97096 21.7561 1.99058 22.5152 1.97096H22.5478C22.3154 1.87617 22.0866 1.77778 21.8542 1.68299L26.2057 6.03457C26.1109 5.80215 26.0126 5.57333 25.9178 5.34091V5.95277V7.61174V10.0755V13.066V16.3577V19.682V22.7642V25.3819V27.2568C25.9178 27.5544 25.9145 27.8523 25.9178 28.15C25.9211 28.1596 25.9211 28.1726 25.9211 28.1859C25.9211 28.6996 26.3727 29.1904 26.9027 29.1675C27.4361 29.1446 27.8843 28.7356 27.8843 28.1859V27.4726V25.5552V22.7609V19.3907V15.798V12.2938V9.18227V6.81659V5.50138C27.8843 5.18412 27.8321 4.90251 27.5964 4.64413C27.4557 4.49047 27.2987 4.34649 27.1514 4.19918C26.3826 3.43036 25.6168 2.66458 24.8479 1.89569C24.3146 1.36231 23.8008 0.806027 23.2478 0.295579C22.9928 0.0601216 22.7078 0.000976562 22.3906 0.000976562H21.8213H19.6781H16.5959H13.0361H9.51221H6.47252H4.42747H3.92034C3.40659 0.000976562 2.92902 0.157952 2.54932 0.518047C2.17623 0.87483 2.00295 1.37863 2.00295 1.88575V2.25221V3.79317V6.21106V9.28005V12.7321V16.351V19.8652V23.0455V25.6632V27.4496C2.00295 27.6917 1.99632 27.9338 2.00295 28.1792C2.02589 29.1837 2.81436 29.9789 3.82224 29.9985C3.90736 30.0018 3.99247 29.9985 4.07428 29.9985H5.56303H8.07601H11.2923H14.8458H18.4055H21.6514H24.2102H25.7612H26.0491C27.06 29.9821 27.8551 29.1967 27.8814 28.1858C27.8943 27.6721 27.4201 27.1813 26.8997 27.2042C26.3594 27.2271 25.9374 27.6361 25.9211 28.1858L25.921 28.186Z" fill="white"/>
<path d="M26.903 4.35595H23.0878H22.5478L23.5294 5.33758V1.52241V0.982404C23.5294 0.468652 23.0779 -0.0221498 22.5478 0.00077264C22.0144 0.0237106 21.5662 0.432726 21.5662 0.982404V4.79757V5.33758C21.5662 5.86764 22.0144 6.31921 22.5478 6.31921H26.363H26.903C27.4167 6.31921 27.9075 5.86764 27.8846 5.33758C27.8617 4.8042 27.4526 4.35595 26.903 4.35595V4.35595Z" fill="white"/>
<path d="M22.6424 13.9728H21.0752H17.3289H12.7971H8.86423C8.22943 13.9728 7.59465 13.9598 6.95983 13.9728H6.93358C6.41982 13.9728 5.92902 14.4244 5.95194 14.9544C5.97488 15.4878 6.3839 15.9361 6.93358 15.9361H8.50079H12.2471H16.7789H20.7118C21.3466 15.9361 21.9814 15.9491 22.6162 15.9361H22.6424C23.1562 15.9361 23.647 15.4845 23.6241 14.9544C23.6011 14.4211 23.1921 13.9728 22.6424 13.9728V13.9728Z" fill="white"/>
<path d="M9.59445 18.4058H6.93113C6.41738 18.4058 5.92658 18.8573 5.9495 19.3874C5.97244 19.9208 6.38146 20.369 6.93113 20.369H9.59445C10.1082 20.369 10.599 19.9175 10.5761 19.3874C10.5531 18.854 10.1441 18.4058 9.59445 18.4058Z" fill="white"/>
<path d="M22.6425 18.4058H19.1087H13.5169H12.2309C11.7172 18.4058 11.2264 18.8573 11.2493 19.3874C11.2722 19.9208 11.6813 20.369 12.2309 20.369H15.7647H21.3566H22.6425C23.1563 20.369 23.6471 19.9175 23.6242 19.3874C23.6012 18.854 23.1922 18.4058 22.6425 18.4058Z" fill="white"/>
<path d="M17.539 22.8398H13.9562H8.2433H6.93113C6.41738 22.8398 5.92658 23.2914 5.9495 23.8215C5.97244 24.3549 6.38146 24.8031 6.93113 24.8031H10.5139H16.2268H17.539C18.0527 24.8031 18.5435 24.3515 18.5206 23.8215C18.4944 23.2914 18.0887 22.8398 17.539 22.8398V22.8398Z" fill="white"/>
<path d="M22.6428 22.8398H20.1235C19.6098 22.8398 19.119 23.2914 19.1419 23.8215C19.1648 24.3549 19.5738 24.8031 20.1235 24.8031H22.6428C23.1565 24.8031 23.6473 24.3515 23.6244 23.8215C23.6015 23.2914 23.1925 22.8398 22.6428 22.8398V22.8398Z" fill="white"/>
<path d="M17.5385 9.23847H14.1161H8.69441H7.4411L8.42274 10.2201V6.32979V5.7768L7.4411 6.75843H10.8635H16.2852H17.5385L16.5569 5.7768V9.6671V10.2201C16.5569 10.7338 17.0084 11.2247 17.5385 11.2017C18.0719 11.1788 18.5201 10.7698 18.5201 10.2201V6.32979V5.7768C18.5201 5.24674 18.0719 4.79517 17.5385 4.79517H14.1161H8.69441H7.4411C6.91104 4.79517 6.45947 5.24342 6.45947 5.7768V9.6671V10.2201C6.45947 10.7502 6.90773 11.2017 7.4411 11.2017H10.8635H16.2852H17.5385C18.0523 11.2017 18.5431 10.7502 18.5201 10.2201C18.4972 9.68672 18.0882 9.23847 17.5385 9.23847Z" fill="white"/>
</g>
<defs>
<clipPath id="clip0_45_48">
<rect width="30" height="30" fill="white"/>
</clipPath>
</defs>
</svg>
