<svg width="30" height="30" viewBox="0 0 30 30" fill="none" xmlns="http://www.w3.org/2000/svg">
<g clip-path="url(#clip0_43_46)">
<path fill-rule="evenodd" clip-rule="evenodd" d="M7.97604 23.8393C7.97604 23.8393 6.02622 22.8644 6.02622 21.4465C6.02622 19.984 11.2109 16.9707 12.496 16.9707H17.5033C18.7885 16.9707 23.9288 19.984 23.9288 21.4465C23.9288 22.8644 22.0233 23.8393 22.0233 23.8393H7.9762H7.97604ZM14.9777 7C17.5037 7 19.4977 9.03835 19.4977 11.52C19.4977 14.0459 17.5037 16.04 14.9777 16.04C12.4961 16.04 10.4577 14.0459 10.4577 11.52C10.4577 9.03835 12.4961 7 14.9777 7ZM1.37364 21.4909C1.37364 21.4909 0 20.782 0 19.7628C0 18.7436 3.6779 16.5279 4.60851 16.5279H8.19788C8.59662 16.5279 9.52722 16.9267 10.4136 17.4585C8.41955 18.3892 5.53912 20.3832 5.53912 21.4466V21.4909H1.37356L1.37364 21.4909ZM6.4255 9.3935C8.19788 9.3935 9.66037 10.856 9.66037 12.6284C9.66037 14.4007 8.19788 15.8632 6.4255 15.8632C4.60851 15.8632 3.19064 14.4007 3.19064 12.6284C3.19064 10.856 4.60859 9.3935 6.4255 9.3935V9.3935ZM28.6264 21.4909C28.6264 21.4909 30 20.782 30 19.7628C30 18.7436 26.2778 16.5279 25.3472 16.5279H21.7578C21.3591 16.5279 20.4727 16.9267 19.5864 17.4585C21.5804 18.3892 24.4609 20.3832 24.4609 21.4466V21.4909H28.6264L28.6264 21.4909ZM23.5745 9.3935C21.7575 9.3935 20.2953 10.856 20.2953 12.6284C20.2953 14.4007 21.7578 15.8632 23.5745 15.8632C25.3469 15.8632 26.8094 14.4007 26.8094 12.6284C26.8094 10.856 25.3469 9.3935 23.5745 9.3935V9.3935Z" fill="white"/>
</g>
<defs>
<clipPath id="clip0_43_46">
<rect width="30" height="30" fill="white"/>
</clipPath>
</defs>
</svg>
