<svg width="30" height="30" viewBox="0 0 30 30" fill="none" xmlns="http://www.w3.org/2000/svg">
<path d="M30.0599 27.076L23.2102 1.52143C22.9577 0.578125 21.99 0.0212681 21.0498 0.273832L17.7117 1.16845C17.4165 0.611597 16.8475 0.219059 16.175 0.219059H12.6452C11.6714 0.219059 10.8803 1.01022 10.8803 1.98396V28.4392C10.8803 29.413 11.6714 30.2041 12.6452 30.2041H16.1719C17.1457 30.2041 17.9368 29.413 17.9368 28.4392V9.0953L23.2437 28.9048C23.4963 29.8451 24.4639 30.405 25.4042 30.1524L28.8123 29.2395C29.7525 28.9839 30.3124 28.0163 30.0599 27.076ZM14.4101 28.4423C13.4363 28.4423 12.6452 27.6511 12.6452 26.6774C12.6452 25.7036 13.4363 24.9125 14.4101 24.9125C15.3838 24.9125 16.175 25.7036 16.175 26.6774C16.175 27.6511 15.3838 28.4423 14.4101 28.4423ZM16.175 7.27562C16.175 8.24936 15.3838 9.04052 14.4101 9.04052C13.4363 9.04052 12.6452 8.24936 12.6452 7.27562V3.74886C12.6452 2.77512 13.4363 1.98396 14.4101 1.98396C15.3838 1.98396 16.175 2.77512 16.175 3.74886V7.27562ZM21.631 9.25049C20.6907 9.50305 19.723 8.94315 19.4705 8.00288L18.5576 4.5948C18.305 3.65149 18.8649 2.68688 19.8052 2.43431C20.7485 2.18175 21.7131 2.74165 21.9657 3.68192L22.8786 7.09C23.1311 8.02723 22.5712 8.99792 21.631 9.25049ZM26.6518 27.9889C25.7115 28.2414 24.7439 27.6815 24.4913 26.7413C24.2387 25.798 24.7986 24.8333 25.7389 24.5808C26.6792 24.3282 27.6468 24.8881 27.8994 25.8284C28.152 26.7717 27.5921 27.7363 26.6518 27.9889ZM5.59165 0.219059H2.06489C1.09115 0.219059 0.299988 1.01022 0.299988 1.98396V28.4392C0.299988 29.413 1.09115 30.2041 2.06489 30.2041H5.59165C6.56539 30.2041 7.35655 29.413 7.35655 28.4392V1.98396C7.35655 1.01022 6.56539 0.219059 5.59165 0.219059ZM3.82675 28.4423C2.85301 28.4423 2.06185 27.6511 2.06185 26.6774C2.06185 25.7036 2.85301 24.9125 3.82675 24.9125C4.80049 24.9125 5.59165 25.7036 5.59165 26.6774C5.59165 27.6511 4.80049 28.4423 3.82675 28.4423ZM5.59165 7.27562C5.59165 8.24936 4.80049 9.04052 3.82675 9.04052C2.85301 9.04052 2.06185 8.24936 2.06185 7.27562V3.74886C2.06185 2.77512 2.85301 1.98396 3.82675 1.98396C4.80049 1.98396 5.59165 2.77512 5.59165 3.74886V7.27562Z" fill="white"/>
</svg>
