<svg width="30" height="30" viewBox="0 0 30 30" fill="none" xmlns="http://www.w3.org/2000/svg">
<path d="M26.459 4.80215C26.459 4.43642 26.1604 4.1398 25.7922 4.1398H17.7373C17.538 3.32067 16.9773 2.63432 16.2111 2.27185C15.445 1.90937 14.5552 1.9094 13.7893 2.27185C13.0232 2.63429 12.4625 3.32067 12.2631 4.1398H4.20825C3.84004 4.1398 3.5414 4.43642 3.5414 4.80215C3.5414 5.16788 3.84004 5.4645 4.20825 5.4645H5.70638L0.859666 21.2304H0.645996C0.449651 21.2288 0.263212 21.3165 0.140566 21.4689C0.0179198 21.621 -0.027726 21.8207 0.0165469 22.0105C0.402633 23.4502 1.25948 24.7219 2.45264 25.6248C3.64552 26.5281 5.10683 27.0118 6.60693 26.9998C8.10702 27.0121 9.56854 26.5283 10.7618 25.6254C11.9547 24.7221 12.8115 23.4505 13.1974 22.0105C13.2419 21.8207 13.1963 21.621 13.0734 21.4689C12.9507 21.3165 12.7645 21.2288 12.5682 21.2304H12.3545L7.5081 5.4645H12.2635C12.4634 6.28279 13.0241 6.96837 13.7897 7.33029C14.5556 7.69246 15.4446 7.69246 16.2102 7.33029C16.976 6.96839 17.5368 6.28286 17.7367 5.4645H22.4924L17.6459 21.2304H17.432C17.2356 21.2288 17.0495 21.3165 16.9266 21.4689C16.8039 21.621 16.7583 21.8207 16.8028 22.0105C17.3355 23.9355 18.6945 25.5301 20.5179 26.37C22.3413 27.2096 24.4447 27.2096 26.2682 26.37C28.0916 25.5301 29.4507 23.9356 29.9833 22.0105C30.0278 21.8207 29.9822 21.621 29.8595 21.4689C29.7366 21.3165 29.5505 21.2288 29.3541 21.2304H29.1402L24.2937 5.4645H25.7919C26.1601 5.4645 26.4587 5.16788 26.4587 4.80215H26.459ZM10.9604 21.2303H2.25506L6.60786 7.06971L10.9604 21.2303ZM15.0006 6.2775C14.6065 6.2775 14.2284 6.12208 13.9495 5.84513C13.6707 5.56845 13.5142 5.19289 13.5139 4.8012C13.5139 4.4098 13.6707 4.03423 13.9492 3.75727C14.2281 3.48032 14.6062 3.3249 15.0003 3.32463C15.3946 3.32463 15.7727 3.48032 16.0513 3.757C16.3301 4.03395 16.4869 4.4095 16.4869 4.80093C16.4866 5.19233 16.3299 5.56762 16.0513 5.84458C15.7725 6.12126 15.3946 6.27695 15.0006 6.27749L15.0006 6.2775ZM27.7467 21.2303H19.0406L23.3934 7.06971L27.7467 21.2303Z" fill="white"/>
</svg>
