<svg width="31" height="31" viewBox="0 0 31 31" fill="none" xmlns="http://www.w3.org/2000/svg">
<path d="M5.204 0.209961C2.4526 0.209961 0.207031 2.45553 0.207031 5.20693V25.215C0.207031 27.9661 2.4526 30.21 5.204 30.21H25.212C27.9632 30.21 30.207 27.9661 30.207 25.215V5.20693C30.207 2.45553 27.9632 0.209961 25.2118 0.209961H5.204ZM11.4404 5.57687C11.6943 5.57935 11.936 5.68451 12.1107 5.86837C12.2857 6.05222 12.3785 6.29918 12.3681 6.55283C12.3577 6.80622 12.2449 7.04476 12.0556 7.21379L8.38792 10.5701H8.38817C8.21298 10.7288 7.98433 10.8154 7.74805 10.8126C7.51174 10.8099 7.28532 10.7181 7.11383 10.5555L5.39802 8.93672C5.15577 8.70536 5.05505 8.3624 5.13424 8.03701C5.21317 7.71137 5.45988 7.45278 5.78158 7.3585C6.10301 7.26423 6.4502 7.34861 6.69269 7.57997L7.76388 8.59795L10.7887 5.82951C10.9441 5.68451 11.1443 5.59666 11.3563 5.58033C11.3843 5.57786 11.4125 5.57687 11.4405 5.57687L11.4404 5.57687ZM14.8572 7.25607H24.3674V7.25582C24.6196 7.25013 24.8636 7.34639 25.044 7.52281C25.2244 7.69925 25.3261 7.941 25.3261 8.1934C25.3261 8.44555 25.2244 8.68731 25.044 8.86373C24.8636 9.04017 24.6196 9.13642 24.3674 9.13073H14.8572C14.605 9.13642 14.3611 9.04016 14.1807 8.86373C14.0003 8.6873 13.8986 8.44554 13.8986 8.1934C13.8986 7.941 14.0003 7.69925 14.1807 7.52281C14.3611 7.34638 14.605 7.25012 14.8572 7.25582V7.25607ZM11.4459 12.5918V12.5915C11.6995 12.595 11.941 12.7009 12.1152 12.8855C12.2894 13.0698 12.3812 13.317 12.37 13.5704C12.3589 13.8237 12.2453 14.0618 12.0555 14.2303L8.3879 17.5867L8.38815 17.5864C8.21321 17.7453 7.98481 17.8324 7.74848 17.8299C7.51216 17.8274 7.2855 17.7361 7.11374 17.5738L5.39794 15.9552V15.955C5.2168 15.7835 5.11115 15.547 5.10447 15.2975C5.09778 15.0478 5.19058 14.8061 5.36255 14.625C5.53428 14.4441 5.77084 14.3387 6.02053 14.3322C6.26996 14.3258 6.51172 14.4188 6.69258 14.5911L7.76377 15.6145L10.7886 12.8478C10.966 12.68 11.2018 12.5879 11.4458 12.5914L11.4459 12.5918ZM14.8572 14.2727H24.3674V14.2724C24.6196 14.2667 24.8636 14.363 25.044 14.5394C25.2244 14.7158 25.3261 14.9576 25.3261 15.2097C25.3261 15.4621 25.2244 15.7039 25.044 15.8803C24.8636 16.0565 24.6196 16.153 24.3674 16.1473H14.8572C14.605 16.153 14.3611 16.0565 14.1807 15.8803C14.0003 15.7039 13.8986 15.4621 13.8986 15.2097C13.8986 14.9576 14.0003 14.7158 14.1807 14.5394C14.3611 14.363 14.605 14.2667 14.8572 14.2724V14.2727ZM11.4607 19.6047V19.6044C11.7144 19.6099 11.9549 19.7182 12.1273 19.9041C12.2998 20.0902 12.3896 20.3381 12.376 20.5915C12.3627 20.8449 12.2471 21.082 12.0556 21.2487L8.38794 24.5977H8.38819C8.21399 24.7573 7.98584 24.8451 7.74953 24.8436C7.51321 24.8424 7.28606 24.7518 7.11384 24.5903L5.39804 22.9717V22.9714C5.21691 22.8 5.11125 22.5634 5.10457 22.3137C5.09789 22.0643 5.19068 21.8225 5.36265 21.6414C5.53438 21.4605 5.77094 21.3551 6.02063 21.3487C6.27006 21.3423 6.51182 21.4353 6.69268 21.6073L7.76387 22.6252L10.7887 19.864V19.8642C10.9431 19.7165 11.1433 19.6262 11.3563 19.6079C11.391 19.6046 11.4258 19.6036 11.4607 19.6044L11.4607 19.6047ZM14.7676 21.291L14.7674 21.2908C14.7973 21.2893 14.8273 21.2893 14.8572 21.2908H24.3674C24.6196 21.2851 24.8636 21.3813 25.044 21.5578C25.2244 21.7342 25.3261 21.9759 25.3261 22.2281C25.3261 22.4805 25.2244 22.7222 25.044 22.8987C24.8636 23.0751 24.6196 23.1714 24.3674 23.1657H14.8572C14.5269 23.1741 14.2166 23.0083 14.0399 22.7289C13.8635 22.4498 13.8467 22.0982 13.9956 21.8035C14.1448 21.5085 14.4381 21.3138 14.7674 21.2908L14.7676 21.291Z" fill="white"/>
</svg>
