<svg width="31" height="31" viewBox="0 0 31 31" fill="none" xmlns="http://www.w3.org/2000/svg">
<path d="M16.9608 1.82001C16.9608 0.991582 17.6324 0.320007 18.4608 0.320007H28.82C29.6484 0.320007 30.32 0.99158 30.32 1.82001V8.82103C30.32 9.64945 29.6484 10.321 28.82 10.321H18.4608C17.6324 10.321 16.9608 9.64946 16.9608 8.82103V1.82001ZM18.4608 30.32C17.6324 30.32 16.9608 29.6484 16.9608 28.82V15.1792C16.9608 14.3508 17.6324 13.6792 18.4608 13.6792H28.82C29.6484 13.6792 30.32 14.3508 30.32 15.1792V28.82C30.32 29.6484 29.6484 30.32 28.82 30.32H18.4608ZM1.82001 30.32C0.991579 30.32 0.320007 29.6484 0.320007 28.82V21.819C0.320007 20.9906 0.99158 20.319 1.82001 20.319H12.1792C13.0076 20.319 13.6792 20.9906 13.6792 21.819V28.82C13.6792 29.6484 13.0076 30.32 12.1792 30.32H1.82001ZM1.82001 16.9608C0.991579 16.9608 0.320007 16.2893 0.320007 15.4608V1.82001C0.320007 0.991581 0.99158 0.320007 1.82001 0.320007H12.1792C13.0076 0.320007 13.6792 0.99158 13.6792 1.82001V15.4608C13.6792 16.2892 13.0076 16.9608 12.1792 16.9608H1.82001Z" fill="white"/>
</svg>
